<?xml version="1.0" encoding="UTF-8" standalone="no" ?>
<!DOCTYPE svg PUBLIC "-//W3C//DTD SVG 1.1//EN" "http://www.w3.org/Graphics/SVG/1.1/DTD/svg11.dtd">
<svg xmlns="http://www.w3.org/2000/svg" xmlns:xlink="http://www.w3.org/1999/xlink" version="1.1" width="405.6" height="220.90199999999996" xml:space="preserve">
<desc>Created with Fabric.js 1.6.0-rc.1</desc>
<defs></defs>
  <g transform="translate(223.5 117.33) scale(1.33 1.33)">
   <text font-family="Merkin Foo" font-size="40" font-weight="bold" style="stroke: none; stroke-width: 1; stroke-dasharray: none; stroke-linecap: butt; stroke-linejoin: miter; stroke-miterlimit: 10; fill: #eb0303; fill-rule: nonzero; opacity: 1;" ><tspan x="-58.52" y="8.98" style="stroke: none; stroke-width: 0; stroke-dasharray: none; stroke-linecap: butt; stroke-linejoin: miter; stroke-miterlimit: 4; fill: #eb0303; fill-rule: ; opacity: 1;">g</tspan><tspan x="-32" y="8.98" style="stroke: none; stroke-width: 0; stroke-dasharray: none; stroke-linecap: butt; stroke-linejoin: miter; stroke-miterlimit: 4; fill: #eb0303; fill-rule: ; opacity: 1;">o</tspan><tspan x="-4.8" y="8.98" style="stroke: none; stroke-width: 0; stroke-dasharray: none; stroke-linecap: butt; stroke-linejoin: miter; stroke-miterlimit: 4; fill: #eb0303; fill-rule: ; opacity: 1;">r</tspan><tspan x="17.92" y="8.98" style="stroke: none; stroke-width: 0; stroke-dasharray: none; stroke-linecap: butt; stroke-linejoin: miter; stroke-miterlimit: 4; fill: #eb0303; fill-rule: ; opacity: 1;">i</tspan><tspan x="31.84" y="8.98" style="stroke: none; stroke-width: 0; stroke-dasharray: none; stroke-linecap: butt; stroke-linejoin: miter; stroke-miterlimit: 4; fill: #eb0303; fill-rule: ; opacity: 1;">b</tspan></text>
 </g>
  <g transform="translate(206.65 185.19) scale(2.04 1)">
   <text font-family="Very Damaged UL" font-size="40" font-weight="normal" style="stroke: none; stroke-width: 1; stroke-dasharray: none; stroke-linecap: butt; stroke-linejoin: miter; stroke-miterlimit: 10; fill: #383428; fill-rule: nonzero; opacity: 1;" ><tspan x="-64.18" y="8.98" style="stroke: none; stroke-width: 0; stroke-dasharray: none; stroke-linecap: butt; stroke-linejoin: miter; stroke-miterlimit: 4; fill: #383428; fill-rule: ; opacity: 1;">s</tspan><tspan x="-46.6" y="8.98" style="stroke: none; stroke-width: 0; stroke-dasharray: none; stroke-linecap: butt; stroke-linejoin: miter; stroke-miterlimit: 4; fill: #383428; fill-rule: ; opacity: 1;">h</tspan><tspan x="-29.02" y="8.98" style="stroke: none; stroke-width: 0; stroke-dasharray: none; stroke-linecap: butt; stroke-linejoin: miter; stroke-miterlimit: 4; fill: #383428; fill-rule: ; opacity: 1;">o</tspan><tspan x="-12.6" y="8.98" style="stroke: none; stroke-width: 0; stroke-dasharray: none; stroke-linecap: butt; stroke-linejoin: miter; stroke-miterlimit: 4; fill: #383428; fill-rule: ; opacity: 1;">p</tspan><tspan x="3.93" y="8.98" style="stroke: none; stroke-width: 0; stroke-dasharray: none; stroke-linecap: butt; stroke-linejoin: miter; stroke-miterlimit: 4; fill: #383428; fill-rule: ; opacity: 1;">p</tspan><tspan x="20.45" y="8.98" style="stroke: none; stroke-width: 0; stroke-dasharray: none; stroke-linecap: butt; stroke-linejoin: miter; stroke-miterlimit: 4; fill: #383428; fill-rule: ; opacity: 1;">i</tspan><tspan x="29.02" y="8.98" style="stroke: none; stroke-width: 0; stroke-dasharray: none; stroke-linecap: butt; stroke-linejoin: miter; stroke-miterlimit: 4; fill: #383428; fill-rule: ; opacity: 1;">n</tspan><tspan x="46.6" y="8.98" style="stroke: none; stroke-width: 0; stroke-dasharray: none; stroke-linecap: butt; stroke-linejoin: miter; stroke-miterlimit: 4; fill: #383428; fill-rule: ; opacity: 1;">g</tspan></text>
 </g>
  <g transform="translate(345.1 79.19) scale(2.59 2.59)">
   <text font-family="Interlude" font-size="40" font-weight="bold" style="stroke: none; stroke-width: 1; stroke-dasharray: none; stroke-linecap: butt; stroke-linejoin: miter; stroke-miterlimit: 10; fill: #170d47; fill-rule: nonzero; opacity: 1;" ><tspan x="-20" y="8.98" style="stroke: none; stroke-width: 0; stroke-dasharray: none; stroke-linecap: butt; stroke-linejoin: miter; stroke-miterlimit: 4; fill: #170d47; fill-rule: ; opacity: 1;">e</tspan><tspan x="2.27" y="8.98" style="stroke: none; stroke-width: 0; stroke-dasharray: none; stroke-linecap: butt; stroke-linejoin: miter; stroke-miterlimit: 4; fill: #170d47; fill-rule: ; opacity: 1;">r</tspan></text>
 </g>
<g style="stroke: none; stroke-width: 1; stroke-dasharray: none; stroke-linecap: butt; stroke-linejoin: miter; stroke-miterlimit: 10; fill: none; fill-rule: nonzero; opacity: 1;" transform="translate(10 32.879999999999995) scale(0.23 0.23)" >
  <polygon points="256,45.88 41.56,195.64 41.56,502.87 470.44,502.87 470.44,319.99 470.44,294.57 470.44,195.64 " style="stroke: none; stroke-width: 1; stroke-dasharray: none; stroke-linecap: butt; stroke-linejoin: miter; stroke-miterlimit: 10; fill: #962424; fill-rule: nonzero; opacity: 1;" transform="  matrix(1 0 0 1 0 0) "/>
  <path d="M 127.337 134.294 c -4.466 0 -8.084 3.618 -8.084 8.084 v 167.587 v 21.866 v 171.044 c 0 4.466 3.618 8.084 8.084 8.084 c 4.465 0 8.084 -3.618 8.084 -8.084 V 331.831 v -21.866 V 142.378 C 135.421 137.913 131.801 134.294 127.337 134.294 z" style="stroke: none; stroke-width: 1; stroke-dasharray: none; stroke-linecap: butt; stroke-linejoin: miter; stroke-miterlimit: 10; fill: #D83E36; fill-rule: nonzero; opacity: 1;" transform=" matrix(1 0 0 1 0 0) " stroke-linecap="round" />
  <path d="M 213.114 71.532 c -4.465 0 -8.084 3.618 -8.084 8.084 V 274.34 c 0 4.466 3.62 8.084 8.084 8.084 c 4.466 0 8.084 -3.618 8.084 -8.084 V 79.616 C 221.198 75.151 217.578 71.532 213.114 71.532 z" style="stroke: none; stroke-width: 1; stroke-dasharray: none; stroke-linecap: butt; stroke-linejoin: miter; stroke-miterlimit: 10; fill: #D83E36; fill-rule: nonzero; opacity: 1;" transform=" matrix(1 0 0 1 0 0) " stroke-linecap="round" />
  <path d="M 298.89 71.532 c -4.465 0 -8.084 3.618 -8.084 8.084 V 274.34 c 0 4.466 3.62 8.084 8.084 8.084 s 8.084 -3.618 8.084 -8.084 V 79.616 C 306.975 75.151 303.355 71.532 298.89 71.532 z" style="stroke: none; stroke-width: 1; stroke-dasharray: none; stroke-linecap: butt; stroke-linejoin: miter; stroke-miterlimit: 10; fill: #D83E36; fill-rule: nonzero; opacity: 1;" transform=" matrix(1 0 0 1 0 0) " stroke-linecap="round" />
  <path d="M 384.665 134.294 c -4.466 0 -8.084 3.618 -8.084 8.084 v 360.495 c 0 4.466 3.618 8.084 8.084 8.084 c 4.465 0 8.084 -3.618 8.084 -8.084 V 142.378 C 392.749 137.913 389.13 134.294 384.665 134.294 z" style="stroke: none; stroke-width: 1; stroke-dasharray: none; stroke-linecap: butt; stroke-linejoin: miter; stroke-miterlimit: 10; fill: #D83E36; fill-rule: nonzero; opacity: 1;" transform=" matrix(1 0 0 1 0 0) " stroke-linecap="round" />
  <rect x="168.78" y="274.33" rx="0" ry="0" width="172.29" height="228.53" style="stroke: none; stroke-width: 1; stroke-dasharray: none; stroke-linecap: butt; stroke-linejoin: miter; stroke-miterlimit: 10; fill: #9B624C; fill-rule: nonzero; opacity: 1;" transform=" matrix(1 0 0 1 0 0) "/>
  <polygon points="168.78,309.23 168.78,274.34 199.96,274.34 341.07,469.37 341.07,502.87 308.89,502.87 " style="stroke: none; stroke-width: 1; stroke-dasharray: none; stroke-linecap: butt; stroke-linejoin: miter; stroke-miterlimit: 10; fill: #9B624C; fill-rule: nonzero; opacity: 1;" transform="  matrix(1 0 0 1 0 0) "/>
  <path d="M 341.07 510.958 H 168.781 c -4.466 0 -8.084 -3.618 -8.084 -8.084 V 274.34 c 0 -4.466 3.618 -8.084 8.084 -8.084 H 341.07 c 4.465 0 8.084 3.618 8.084 8.084 v 228.534 C 349.154 507.339 345.534 510.958 341.07 510.958 z M 176.865 494.789 h 156.12 V 282.424 h -156.12 V 494.789 z" style="stroke: none; stroke-width: 1; stroke-dasharray: none; stroke-linecap: butt; stroke-linejoin: miter; stroke-miterlimit: 10; fill: #000000; fill-rule: nonzero; opacity: 1;" transform=" matrix(1 0 0 1 0 0) " stroke-linecap="round" />
  <path d="M 336.758 328.132 h -103.73 c -4.466 0 -8.084 -3.618 -8.084 -8.084 c 0 -4.466 3.618 -8.084 8.084 -8.084 h 103.73 c 4.465 0 8.084 3.618 8.084 8.084 C 344.842 324.513 341.223 328.132 336.758 328.132 z" style="stroke: none; stroke-width: 1; stroke-dasharray: none; stroke-linecap: butt; stroke-linejoin: miter; stroke-miterlimit: 10; fill: #000000; fill-rule: nonzero; opacity: 1;" transform=" matrix(1 0 0 1 0 0) " stroke-linecap="round" />
  <path d="M 206.735 373.839 h -37.954 c -4.466 0 -8.084 -3.618 -8.084 -8.084 s 3.618 -8.084 8.084 -8.084 h 37.954 c 4.465 0 8.084 3.618 8.084 8.084 S 211.198 373.839 206.735 373.839 z" style="stroke: none; stroke-width: 1; stroke-dasharray: none; stroke-linecap: butt; stroke-linejoin: miter; stroke-miterlimit: 10; fill: #000000; fill-rule: nonzero; opacity: 1;" transform=" matrix(1 0 0 1 0 0) " stroke-linecap="round" />
  <path d="M 336.758 373.839 h -66.722 c -4.465 0 -8.084 -3.618 -8.084 -8.084 s 3.62 -8.084 8.084 -8.084 h 66.722 c 4.465 0 8.084 3.618 8.084 8.084 S 341.223 373.839 336.758 373.839 z" style="stroke: none; stroke-width: 1; stroke-dasharray: none; stroke-linecap: butt; stroke-linejoin: miter; stroke-miterlimit: 10; fill: #000000; fill-rule: nonzero; opacity: 1;" transform=" matrix(1 0 0 1 0 0) " stroke-linecap="round" />
  <path d="M 239.341 419.546 h -70.56 c -4.466 0 -8.084 -3.618 -8.084 -8.084 s 3.618 -8.084 8.084 -8.084 h 70.56 c 4.466 0 8.084 3.618 8.084 8.084 S 243.807 419.546 239.341 419.546 z" style="stroke: none; stroke-width: 1; stroke-dasharray: none; stroke-linecap: butt; stroke-linejoin: miter; stroke-miterlimit: 10; fill: #000000; fill-rule: nonzero; opacity: 1;" transform=" matrix(1 0 0 1 0 0) " stroke-linecap="round" />
  <path d="M 336.758 419.546 H 301.64 c -4.466 0 -8.084 -3.618 -8.084 -8.084 s 3.618 -8.084 8.084 -8.084 h 35.118 c 4.465 0 8.084 3.618 8.084 8.084 S 341.223 419.546 336.758 419.546 z" style="stroke: none; stroke-width: 1; stroke-dasharray: none; stroke-linecap: butt; stroke-linejoin: miter; stroke-miterlimit: 10; fill: #000000; fill-rule: nonzero; opacity: 1;" transform=" matrix(1 0 0 1 0 0) " stroke-linecap="round" />
  <path d="M 273.41 465.25 H 168.781 c -4.466 0 -8.084 -3.62 -8.084 -8.084 c 0 -4.466 3.618 -8.084 8.084 -8.084 H 273.41 c 4.465 0 8.084 3.618 8.084 8.084 C 281.494 461.632 277.875 465.25 273.41 465.25 z" style="stroke: none; stroke-width: 1; stroke-dasharray: none; stroke-linecap: butt; stroke-linejoin: miter; stroke-miterlimit: 10; fill: #000000; fill-rule: nonzero; opacity: 1;" transform=" matrix(1 0 0 1 0 0) " stroke-linecap="round" />
  <path d="M 341.07 510.958 h -32.175 c -2.593 0 -5.029 -1.244 -6.549 -3.346 L 162.232 313.966 c -0.998 -1.379 -1.535 -3.036 -1.535 -4.738 v -34.886 c 0 -4.466 3.618 -8.084 8.084 -8.084 h 31.175 c 2.592 0 5.029 1.244 6.549 3.346 l 141.114 195.032 c 0.998 1.379 1.535 3.036 1.535 4.74 v 33.502 C 349.154 507.339 345.534 510.958 341.07 510.958 z M 313.023 494.789 h 19.963 v -22.8 L 195.827 282.424 h -18.961 v 24.184 L 313.023 494.789 z" style="stroke: none; stroke-width: 1; stroke-dasharray: none; stroke-linecap: butt; stroke-linejoin: miter; stroke-miterlimit: 10; fill: #000000; fill-rule: nonzero; opacity: 1;" transform=" matrix(1 0 0 1 0 0) " stroke-linecap="round" />
  <polygon points="272.28,61.71 262.38,47.59 53.6,193.83 41.56,193.83 41.56,497.82 58.81,497.82 58.81,211.24 " style="stroke: none; stroke-width: 1; stroke-dasharray: none; stroke-linecap: butt; stroke-linejoin: miter; stroke-miterlimit: 10; fill: #ff0000; fill-rule: nonzero; opacity: 1;" transform="  matrix(1 0 0 1 0 0) "/>
  <polygon points="194.12,494.79 176.88,494.79 176.88,334.25 194.12,358.04 " style="stroke: none; stroke-width: 1; stroke-dasharray: none; stroke-linecap: butt; stroke-linejoin: miter; stroke-miterlimit: 10; fill: #ff0000; fill-rule: nonzero; opacity: 1;" transform="  matrix(1 0 0 1 0 0) "/>
  <polygon points="332.93,414.2 332.99,444.41 215.78,282.42 237.35,282.42 " style="stroke: none; stroke-width: 1; stroke-dasharray: none; stroke-linecap: butt; stroke-linejoin: miter; stroke-miterlimit: 10; fill: #ff0000; fill-rule: nonzero; opacity: 1;" transform="  matrix(1 0 0 1 0 0) "/>
  <path d="M 503.916 510.958 H 8.084 c -4.465 0 -8.084 -3.618 -8.084 -8.084 s 3.62 -8.084 8.084 -8.084 h 495.832 c 4.466 0 8.084 3.618 8.084 8.084 S 508.382 510.958 503.916 510.958 z" style="stroke: none; stroke-width: 1; stroke-dasharray: none; stroke-linecap: butt; stroke-linejoin: miter; stroke-miterlimit: 10; fill: #000000; fill-rule: nonzero; opacity: 1;" transform=" matrix(1 0 0 1 0 0) " stroke-linecap="round" />
  <path d="M 504.894 173.672 l -99.434 -70.093 c -0.04 -0.028 -0.08 -0.056 -0.121 -0.083 l -19.426 -12.912 L 259.087 2.012 c -1.854 -1.295 -4.318 -1.295 -6.172 0 L 7.126 173.659 c -1.444 1.009 -2.303 2.658 -2.303 4.419 v 39.453 c 0 2.008 1.116 3.85 2.897 4.779 c 1.782 0.928 3.931 0.789 5.578 -0.36 L 256.002 52.458 l 242.701 169.491 c 0.922 0.643 2.002 0.97 3.086 0.97 c 0.853 0 1.707 -0.203 2.49 -0.61 c 1.781 -0.928 2.9 -2.77 2.9 -4.779 v -39.453 C 507.179 176.325 506.326 174.682 504.894 173.672 z" style="stroke: none; stroke-width: 1; stroke-dasharray: none; stroke-linecap: butt; stroke-linejoin: miter; stroke-miterlimit: 10; fill: #f7e418; fill-rule: nonzero; opacity: 1;" transform=" matrix(1 0 0 1 0 0) " stroke-linecap="round" />
</g>
<g style="stroke: none; stroke-width: 1; stroke-dasharray: none; stroke-linecap: butt; stroke-linejoin: miter; stroke-miterlimit: 10; fill: none; fill-rule: nonzero; opacity: 1;" transform="translate(40.81000000000006 94.25) scale(0.43 0.43)" >
  <path d="M 97.891 18.629 c 1.212 0.19 3.393 0.971 4.371 4.069 c 0.499 1.58 -0.377 3.265 -1.958 3.764 c -1.536 0.487 -3.178 -0.333 -3.723 -1.836 c -3.239 0.858 -12.205 10.263 -21.096 21.945 c 11.346 -2.257 28.234 -6.448 32.937 -11.152 c 3.255 -3.255 5.048 -7.582 5.048 -12.185 c 0 -4.603 -1.792 -8.931 -5.047 -12.185 C 105.168 7.793 100.841 6 96.237 6 c -4.603 0 -8.931 1.793 -12.186 5.048 c -1.667 1.667 -6.195 9.643 -10.16 27.847 c 1.287 -1.621 2.669 -3.322 4.109 -5.027 C 90.062 19.582 94.823 18.147 97.891 18.629 z" style="stroke: none; stroke-width: 1; stroke-dasharray: none; stroke-linecap: butt; stroke-linejoin: miter; stroke-miterlimit: 10; fill: #fafafa; fill-rule: nonzero; opacity: 1;" transform=" matrix(1 0 0 1 0 0) " stroke-linecap="round" />
  <path d="M 28.582 35.418 c 1.815 1.817 11.125 7.027 32.977 11.207 c -8.904 -11.708 -17.892 -21.14 -21.136 -21.999 c -0.544 1.503 -2.181 2.323 -3.723 1.836 c -1.58 -0.499 -2.457 -2.184 -1.958 -3.764 c 0.978 -3.098 3.158 -3.879 4.371 -4.069 c 3.072 -0.482 7.83 0.954 19.89 15.239 c 1.4 1.659 2.746 3.313 4.003 4.894 c -2.384 -10.758 -6.032 -23.692 -10.054 -27.713 C 49.697 7.793 45.37 6 40.767 6 c -4.603 0 -8.93 1.793 -12.184 5.048 c -3.256 3.255 -5.049 7.582 -5.049 12.185 C 23.534 27.836 25.327 32.164 28.582 35.418 z" style="stroke: none; stroke-width: 1; stroke-dasharray: none; stroke-linecap: butt; stroke-linejoin: miter; stroke-miterlimit: 10; fill: #fafafa; fill-rule: nonzero; opacity: 1;" transform=" matrix(1 0 0 1 0 0) " stroke-linecap="round" />
  <rect x="80.14" y="79.29" rx="0" ry="0" width="34" height="51" style="stroke: none; stroke-width: 1; stroke-dasharray: none; stroke-linecap: butt; stroke-linejoin: miter; stroke-miterlimit: 10; fill: #f7f7f6; fill-rule: nonzero; opacity: 1;" transform=" matrix(1 0 0 1 0 0) "/>
  <rect x="22.14" y="79.29" rx="0" ry="0" width="34" height="51" style="stroke: none; stroke-width: 1; stroke-dasharray: none; stroke-linecap: butt; stroke-linejoin: miter; stroke-miterlimit: 10; fill: #f7f7f6; fill-rule: nonzero; opacity: 1;" transform=" matrix(1 0 0 1 0 0) "/>
  <rect x="62.14" y="79.29" rx="0" ry="0" width="12" height="51" style="stroke: none; stroke-width: 1; stroke-dasharray: none; stroke-linecap: butt; stroke-linejoin: miter; stroke-miterlimit: 10; fill: #fafafa; fill-rule: nonzero; opacity: 1;" transform=" matrix(1 0 0 1 0 0) "/>
  <rect x="62.14" y="56.29" rx="0" ry="0" width="12" height="17" style="stroke: none; stroke-width: 1; stroke-dasharray: none; stroke-linecap: butt; stroke-linejoin: miter; stroke-miterlimit: 10; fill: #fafafa; fill-rule: nonzero; opacity: 1;" transform=" matrix(1 0 0 1 0 0) "/>
  <rect x="80.14" y="56.29" rx="0" ry="0" width="42" height="17" style="stroke: none; stroke-width: 1; stroke-dasharray: none; stroke-linecap: butt; stroke-linejoin: miter; stroke-miterlimit: 10; fill: #f7f7f6; fill-rule: nonzero; opacity: 1;" transform=" matrix(1 0 0 1 0 0) "/>
  <rect x="14.14" y="56.29" rx="0" ry="0" width="42" height="17" style="stroke: none; stroke-width: 1; stroke-dasharray: none; stroke-linecap: butt; stroke-linejoin: miter; stroke-miterlimit: 10; fill: #f7f7f6; fill-rule: nonzero; opacity: 1;" transform=" matrix(1 0 0 1 0 0) "/>
  <path d="M 96.237 0 c -1.181 0 -2.341 0.115 -3.487 0.287 h 6.975 C 98.579 0.115 97.418 0 96.237 0 z" style="stroke: none; stroke-width: 1; stroke-dasharray: none; stroke-linecap: butt; stroke-linejoin: miter; stroke-miterlimit: 10; fill: #e80e0e; fill-rule: nonzero; opacity: 1;" transform=" matrix(1 0 0 1 0 0) " stroke-linecap="round" />
  <path d="M 40.767 0 c -1.181 0 -2.341 0.115 -3.487 0.287 h 6.975 C 43.108 0.115 41.947 0 40.767 0 z" style="stroke: none; stroke-width: 1; stroke-dasharray: none; stroke-linecap: butt; stroke-linejoin: miter; stroke-miterlimit: 10; fill: #e80e0e; fill-rule: nonzero; opacity: 1;" transform=" matrix(1 0 0 1 0 0) " stroke-linecap="round" />
  <path d="M 17.534 23.233 c 0 6.206 2.417 12.04 6.806 16.428 c 4.546 4.548 16.004 8.173 26.079 10.626 H 8.143 v 29 h 8 v 57 h 104 v -57 h 8 v -29 H 86.587 c 10.075 -2.453 21.532 -6.078 26.079 -10.626 c 4.389 -4.387 6.805 -10.222 6.805 -16.428 c 0 -6.206 -2.417 -12.041 -6.805 -16.427 c -3.553 -3.554 -8.061 -5.788 -12.941 -6.519 H 92.75 c -4.879 0.731 -9.388 2.965 -12.941 6.519 c -4.988 4.987 -8.868 18.293 -11.307 28.964 c -2.438 -10.67 -6.319 -23.977 -11.307 -28.963 c -3.553 -3.554 -8.062 -5.788 -12.941 -6.519 h -6.975 C 32.4 1.018 27.892 3.252 24.34 6.805 C 19.951 11.192 17.534 17.027 17.534 23.233 z M 56.143 130.287 h -34 v -51 h 34 V 130.287 z M 56.143 73.287 h -42 v -17 h 42 V 73.287 z M 74.143 130.287 h -12 v -51 h 12 V 130.287 z M 114.143 130.287 h -34 v -51 h 34 V 130.287 z M 122.143 56.287 v 17 h -42 v -17 H 122.143 z M 84.052 11.048 C 87.307 7.793 91.634 6 96.237 6 c 4.604 0 8.931 1.793 12.186 5.048 c 3.255 3.254 5.047 7.582 5.047 12.185 c 0 4.603 -1.792 8.931 -5.048 12.185 c -4.703 4.704 -21.591 8.896 -32.937 11.152 c 8.891 -11.682 17.856 -21.087 21.096 -21.945 c 0.545 1.503 2.188 2.323 3.723 1.836 c 1.58 -0.499 2.457 -2.185 1.958 -3.764 c -0.979 -3.098 -3.159 -3.879 -4.371 -4.069 c -3.068 -0.482 -7.829 0.953 -19.89 15.239 c -1.439 1.705 -2.822 3.406 -4.109 5.027 C 77.857 20.691 82.385 12.714 84.052 11.048 z M 74.143 56.287 v 17 h -12 v -17 H 74.143 z M 40.767 6 c 4.603 0 8.931 1.793 12.186 5.048 c 4.022 4.022 7.67 16.956 10.054 27.713 c -1.257 -1.581 -2.603 -3.235 -4.003 -4.894 c -12.06 -14.285 -16.818 -15.721 -19.89 -15.239 c -1.212 0.19 -3.393 0.971 -4.371 4.069 c -0.499 1.58 0.377 3.265 1.958 3.764 c 1.542 0.486 3.179 -0.333 3.723 -1.836 c 3.244 0.859 12.232 10.292 21.136 21.999 c -21.852 -4.18 -31.162 -9.39 -32.977 -11.207 c -3.255 -3.254 -5.048 -7.582 -5.048 -12.185 c 0 -4.603 1.793 -8.93 5.049 -12.185 C 31.837 7.793 36.164 6 40.767 6 z" style="stroke: none; stroke-width: 1; stroke-dasharray: none; stroke-linecap: butt; stroke-linejoin: miter; stroke-miterlimit: 10; fill: #e80e0e; fill-rule: nonzero; opacity: 1;" transform=" matrix(1 0 0 1 0 0) " stroke-linecap="round" />
</g>
</svg>