<?xml version="1.0" encoding="UTF-8" standalone="no" ?>
<!DOCTYPE svg PUBLIC "-//W3C//DTD SVG 1.1//EN" "http://www.w3.org/Graphics/SVG/1.1/DTD/svg11.dtd">
<svg xmlns="http://www.w3.org/2000/svg" xmlns:xlink="http://www.w3.org/1999/xlink" version="1.1" width="139.76999999999998" height="132.89200000000002" xml:space="preserve">
<desc>Created with Fabric.js 1.6.0-rc.1</desc>
<defs></defs>
<g style="stroke: none; stroke-width: 1; stroke-dasharray: none; stroke-linecap: butt; stroke-linejoin: miter; stroke-miterlimit: 10; fill: none; fill-rule: nonzero; opacity: 1;" transform="translate(10 10.000000000000007) scale(2.03 2.03)" >
  <path d="M 19 17 V 7.206 C 19 5.988 19.988 5 21.206 5 h 15.587 C 38.012 5 39 5.988 39 7.206 V 17" style="stroke: #d41e4b; stroke-width: 2; stroke-dasharray: none; stroke-linecap: round; stroke-linejoin: miter; stroke-miterlimit: 10; fill: none; fill-rule: nonzero; opacity: 1;" transform=" matrix(1 0 0 1 0 0) " stroke-linecap="round" />
  <path d="M 55.99 54 H 2.01 C 0.9 54 0 53.1 0 51.99 V 16.01 C 0 14.9 0.9 14 2.01 14 H 55.99 C 57.1 14 58 14.9 58 16.01 V 51.99 C 58 53.1 57.1 54 55.99 54 z" style="stroke: none; stroke-width: 1; stroke-dasharray: none; stroke-linecap: butt; stroke-linejoin: miter; stroke-miterlimit: 10; fill: #f5f5f9; fill-rule: nonzero; opacity: 1;" transform=" matrix(1 0 0 1 0 0) " stroke-linecap="round" />
  <path d="M 8 14 H 2.01 C 0.9 14 0 14.9 0 16.01 V 51.99 C 0 53.1 0.9 54 2.01 54 H 8 V 14 z" style="stroke: none; stroke-width: 1; stroke-dasharray: none; stroke-linecap: butt; stroke-linejoin: miter; stroke-miterlimit: 10; fill: #f58a18; fill-rule: nonzero; opacity: 1;" transform=" matrix(1 0 0 1 0 0) " stroke-linecap="round" />
  <path d="M 55.99 14 H 50 v 40 h 5.99 C 57.1 54 58 53.1 58 51.99 V 16.01 C 58 14.9 57.1 14 55.99 14 z" style="stroke: none; stroke-width: 1; stroke-dasharray: none; stroke-linecap: butt; stroke-linejoin: miter; stroke-miterlimit: 10; fill: #f58a18; fill-rule: nonzero; opacity: 1;" transform=" matrix(1 0 0 1 0 0) " stroke-linecap="round" />
  <rect x="7" y="14" rx="0" ry="0" width="2" height="40" style="stroke: none; stroke-width: 1; stroke-dasharray: none; stroke-linecap: butt; stroke-linejoin: miter; stroke-miterlimit: 10; fill: #D1A074; fill-rule: nonzero; opacity: 1;" transform=" matrix(1 0 0 1 0 0) "/>
  <rect x="49" y="14" rx="0" ry="0" width="2" height="40" style="stroke: none; stroke-width: 1; stroke-dasharray: none; stroke-linecap: butt; stroke-linejoin: miter; stroke-miterlimit: 10; fill: #D1A074; fill-rule: nonzero; opacity: 1;" transform=" matrix(1 0 0 1 0 0) "/>
  <rect x="5" y="11" rx="0" ry="0" width="8" height="3" style="stroke: none; stroke-width: 1; stroke-dasharray: none; stroke-linecap: butt; stroke-linejoin: miter; stroke-miterlimit: 10; fill: #C7CAC7; fill-rule: nonzero; opacity: 1;" transform=" matrix(1 0 0 1 0 0) "/>
  <rect x="45" y="11" rx="0" ry="0" width="8" height="3" style="stroke: none; stroke-width: 1; stroke-dasharray: none; stroke-linecap: butt; stroke-linejoin: miter; stroke-miterlimit: 10; fill: #C7CAC7; fill-rule: nonzero; opacity: 1;" transform=" matrix(1 0 0 1 0 0) "/>
</g>
  <g transform="translate(76.39 97.18)">
   <text font-family="Northern Lights" font-size="40" font-weight="bold" style="stroke: none; stroke-width: 1; stroke-dasharray: none; stroke-linecap: butt; stroke-linejoin: miter; stroke-miterlimit: 10; fill: #1f191f; fill-rule: nonzero; opacity: 1;" ><tspan x="-13.4" y="8.98" style="stroke: none; stroke-width: 0; stroke-dasharray: none; stroke-linecap: butt; stroke-linejoin: miter; stroke-miterlimit: 4; fill: #1f191f; fill-rule: ; opacity: 1;">i</tspan><tspan x="-6.41" y="8.98" style="stroke: none; stroke-width: 0; stroke-dasharray: none; stroke-linecap: butt; stroke-linejoin: miter; stroke-miterlimit: 4; fill: #1f191f; fill-rule: ; opacity: 1;">b</tspan></text>
 </g>
  <g transform="translate(63.51 66.83) scale(0.65 0.65)">
   <text font-family="Kronika" font-size="40" font-weight="normal" style="stroke: none; stroke-width: 1; stroke-dasharray: none; stroke-linecap: butt; stroke-linejoin: miter; stroke-miterlimit: 10; fill: #cc4264; fill-rule: nonzero; opacity: 1;" ><tspan x="-34.91" y="8.98" style="stroke: none; stroke-width: 0; stroke-dasharray: none; stroke-linecap: butt; stroke-linejoin: miter; stroke-miterlimit: 4; fill: #cc4264; fill-rule: ; opacity: 1;">G</tspan><tspan x="-6.61" y="8.98" style="stroke: none; stroke-width: 0; stroke-dasharray: none; stroke-linecap: butt; stroke-linejoin: miter; stroke-miterlimit: 4; fill: #cc4264; fill-rule: ; opacity: 1;">o</tspan><tspan x="16.59" y="8.98" style="stroke: none; stroke-width: 0; stroke-dasharray: none; stroke-linecap: butt; stroke-linejoin: miter; stroke-miterlimit: 4; fill: #cc4264; fill-rule: ; opacity: 1;">r</tspan></text>
 </g>
</svg>